<svg width="265" height="33" viewBox="0 0 265 33" fill="none" xmlns="http://www.w3.org/2000/svg">
<path d="M6.048 23.3999V20.7759H0.576V18.9519L5.92 11.4799H8.192V18.9519H9.936V20.7759H8.192V23.3999H6.048ZM2.176 19.7359L1.792 18.9519H6.048V13.1919L6.608 13.3679L2.176 19.7359ZM12.4368 23.3999V21.1599H14.5488V23.3999H12.4368ZM21.5716 23.5919C20.7076 23.5919 19.9556 23.4319 19.3156 23.1119C18.6863 22.7812 18.1956 22.3386 17.8436 21.7839C17.5023 21.2292 17.3316 20.6212 17.3316 19.9599C17.3316 19.1812 17.5396 18.5252 17.9556 17.9919C18.3716 17.4479 18.9743 17.0479 19.7636 16.7919L19.6356 17.3199C19.0703 17.1386 18.6223 16.7866 18.2916 16.2639C17.9716 15.7412 17.8116 15.1652 17.8116 14.5359C17.8116 13.9066 17.9716 13.3466 18.2916 12.8559C18.6116 12.3652 19.0543 11.9812 19.6196 11.7039C20.185 11.4266 20.8356 11.2879 21.5716 11.2879C22.297 11.2879 22.937 11.4266 23.4916 11.7039C24.057 11.9812 24.4996 12.3652 24.8196 12.8559C25.1503 13.3466 25.3156 13.9066 25.3156 14.5359C25.3156 15.1759 25.1503 15.7572 24.8196 16.2799C24.4996 16.7919 24.057 17.1439 23.4916 17.3359L23.3796 16.7759C24.169 17.0532 24.7716 17.4639 25.1876 18.0079C25.6036 18.5412 25.8116 19.1972 25.8116 19.9759C25.8116 20.6372 25.6356 21.2452 25.2836 21.7999C24.9423 22.3439 24.4516 22.7812 23.8116 23.1119C23.1823 23.4319 22.4356 23.5919 21.5716 23.5919ZM21.5716 21.7519C21.9876 21.7519 22.3503 21.6772 22.6596 21.5279C22.969 21.3679 23.209 21.1492 23.3796 20.8719C23.5503 20.5839 23.6356 20.2586 23.6356 19.8959C23.6356 19.5226 23.5503 19.2026 23.3796 18.9359C23.209 18.6586 22.969 18.4452 22.6596 18.2959C22.3503 18.1359 21.9876 18.0559 21.5716 18.0559C21.1556 18.0559 20.793 18.1359 20.4836 18.2959C20.185 18.4452 19.9503 18.6586 19.7796 18.9359C19.609 19.2026 19.5236 19.5226 19.5236 19.8959C19.5236 20.2586 19.609 20.5839 19.7796 20.8719C19.9503 21.1492 20.185 21.3679 20.4836 21.5279C20.793 21.6772 21.1556 21.7519 21.5716 21.7519ZM21.5716 16.2159C21.881 16.2159 22.153 16.1466 22.3876 16.0079C22.6223 15.8692 22.8036 15.6879 22.9316 15.4639C23.0703 15.2292 23.1396 14.9626 23.1396 14.6639C23.1396 14.3652 23.0703 14.1039 22.9316 13.8799C22.8036 13.6452 22.6223 13.4639 22.3876 13.3359C22.153 13.1972 21.881 13.1279 21.5716 13.1279C21.2623 13.1279 20.985 13.1972 20.7396 13.3359C20.505 13.4639 20.3183 13.6452 20.1796 13.8799C20.0516 14.1039 19.9876 14.3652 19.9876 14.6639C19.9876 14.9626 20.0516 15.2292 20.1796 15.4639C20.3183 15.6879 20.505 15.8692 20.7396 16.0079C20.985 16.1466 21.2623 16.2159 21.5716 16.2159Z" fill="black"/>
<path d="M63.6614 6.57324H44.0078V26.2268H63.6614V6.57324Z" fill="#00B67A"/>
<path d="M84.7479 6.57324H65.0944V26.2268H84.7479V6.57324Z" fill="#00B67A"/>
<path d="M106.039 6.57324H86.3857V26.2268H106.039V6.57324Z" fill="#00B67A"/>
<path d="M127.126 6.57324H107.472V26.2268H127.126V6.57324Z" fill="#00B67A"/>
<path d="M148.417 6.57324H128.764V26.2268H148.417V6.57324Z" fill="#DCDCE6"/>
<path d="M128.764 6.57324H138.59V26.0221H128.764V6.57324Z" fill="#00B67A"/>
<path d="M53.6298 19.6754L56.7007 18.8565L57.929 22.7463L53.6298 19.6754ZM60.5904 14.762H55.2676L53.6298 9.84863L51.992 14.762H46.8739L51.1731 17.8329L49.5353 22.7463L53.8345 19.6754L56.4959 17.8329L60.5904 14.762Z" fill="white"/>
<path d="M74.9212 19.6754L77.9921 18.8565L79.2204 22.7463L74.9212 19.6754ZM81.6771 14.762H76.3543L74.7165 9.84863L73.0787 14.762H67.7559L72.0551 17.8329L70.4173 22.7463L74.7165 19.6754L77.3779 17.8329L81.6771 14.762Z" fill="white"/>
<path d="M96.2126 19.6754L99.2835 18.8565L100.512 22.7463L96.2126 19.6754ZM102.969 14.762H97.6457L96.0079 9.84863L94.3701 14.762H89.0472L93.3465 17.8329L91.9134 22.7463L96.2126 19.6754L98.874 17.8329L102.969 14.762Z" fill="white"/>
<path d="M117.299 19.6754L120.37 18.8565L121.598 22.7463L117.299 19.6754ZM124.26 14.762H118.937L117.299 9.84863L115.661 14.762H110.339L114.638 17.8329L113 22.7463L117.299 19.6754L119.961 17.8329L124.26 14.762Z" fill="white"/>
<path d="M138.591 19.6754L141.661 18.8565L142.89 22.7463L138.591 19.6754ZM145.346 14.762H140.024L138.386 9.84863L136.953 14.762H131.63L135.929 17.8329L134.291 22.7463L138.591 19.6754L141.252 17.8329L145.346 14.762Z" fill="white"/>
<g clip-path="url(#clip0_0_84)">
<path d="M181.164 11.6039C181.164 11.2584 181.447 10.9756 181.776 10.9756H185.891C187.242 10.9756 188.326 11.3838 189.017 12.0749C189.55 12.6091 189.864 13.3785 189.864 14.2421V14.2734C189.864 16.08 188.64 17.1317 186.928 17.4621L189.661 20.98C189.786 21.1211 189.864 21.2628 189.864 21.4353C189.864 21.7651 189.55 22.0479 189.236 22.0479C188.985 22.0479 188.797 21.9068 188.655 21.7181L185.561 17.6973H182.404V21.4196C182.404 21.7651 182.121 22.0479 181.776 22.0479C181.446 22.0479 181.163 21.7651 181.163 21.4196L181.164 11.6039ZM185.782 16.5829C187.431 16.5829 188.608 15.7345 188.608 14.321V14.2897C188.608 12.9389 187.572 12.1219 185.797 12.1219H182.405V16.5829H185.782Z" fill="black"/>
<path d="M192.361 21.3412V11.6039C192.361 11.2584 192.643 10.9756 192.973 10.9756H199.805C200.119 10.9756 200.371 11.227 200.371 11.5412C200.371 11.8553 200.119 12.1068 199.805 12.1068H193.601V15.8599H199.098C199.412 15.8599 199.664 16.127 199.664 16.4255C199.664 16.7397 199.412 16.9911 199.098 16.9911H193.601V20.8389H199.883C200.197 20.8389 200.449 21.0903 200.449 21.4045C200.449 21.7186 200.197 21.9701 199.883 21.9701H192.973C192.643 21.9695 192.361 21.6867 192.361 21.3412Z" fill="black"/>
<path d="M206.258 21.5768L202.018 11.7919C201.971 11.6978 201.954 11.6194 201.954 11.5091C201.954 11.195 202.237 10.8965 202.583 10.8965C202.897 10.8965 203.117 11.1009 203.227 11.3674L207.028 20.4764L210.844 11.3361C210.954 11.116 211.174 10.8965 211.457 10.8965C211.802 10.8965 212.069 11.1793 212.069 11.4934C212.069 11.5875 212.054 11.6659 212.022 11.7449L207.766 21.5762C207.624 21.8904 207.404 22.0948 207.043 22.0948H206.98C206.62 22.0948 206.384 21.8904 206.258 21.5768Z" fill="black"/>
<path d="M214.36 11.5248C214.36 11.1793 214.643 10.8965 214.973 10.8965C215.319 10.8965 215.601 11.1793 215.601 11.5248V21.4194C215.601 21.765 215.319 22.0478 214.973 22.0478C214.643 22.0478 214.36 21.765 214.36 21.4194V11.5248Z" fill="black"/>
<path d="M218.663 21.3412V11.6039C218.663 11.2584 218.946 10.9756 219.276 10.9756H226.108C226.422 10.9756 226.673 11.227 226.673 11.5412C226.673 11.8553 226.422 12.1068 226.108 12.1068H219.904V15.8599H225.401C225.715 15.8599 225.966 16.127 225.966 16.4255C225.966 16.7397 225.715 16.9911 225.401 16.9911H219.904V20.8389H226.186C226.5 20.8389 226.751 21.0903 226.751 21.4045C226.751 21.7186 226.5 21.9701 226.186 21.9701H219.275C218.946 21.9695 218.663 21.6867 218.663 21.3412Z" fill="black"/>
<path d="M228.368 11.8076C228.337 11.7135 228.306 11.6194 228.306 11.5248C228.306 11.195 228.604 10.8965 228.95 10.8965C229.264 10.8965 229.5 11.1322 229.594 11.4145L232.625 20.1471L235.499 11.3831C235.593 11.1003 235.782 10.8965 236.112 10.8965H236.19C236.505 10.8965 236.708 11.1009 236.803 11.3831L239.677 20.1471L242.724 11.3831C242.818 11.1003 243.022 10.8965 243.321 10.8965C243.651 10.8965 243.949 11.195 243.949 11.5091C243.949 11.6032 243.902 11.7135 243.87 11.8076L240.352 21.5762C240.243 21.8904 240.023 22.1105 239.708 22.1105H239.614C239.3 22.1105 239.08 21.8904 238.97 21.5762L236.112 13.127L233.27 21.5762C233.16 21.8904 232.94 22.1105 232.626 22.1105H232.531C232.217 22.1105 231.997 21.9066 231.887 21.5762L228.368 11.8076Z" fill="black"/>
<path d="M245.502 20.6502C245.36 20.5561 245.266 20.3831 245.266 20.1792C245.266 19.8337 245.533 19.5666 245.863 19.5666C246.02 19.5666 246.161 19.6293 246.24 19.7077C247.276 20.5869 248.313 21.0114 249.71 21.0114C251.187 21.0114 252.16 20.2263 252.16 19.1427V19.1113C252.16 18.0904 251.611 17.5092 249.302 17.0225C246.773 16.4732 245.611 15.6561 245.611 13.8501V13.8182C245.611 12.0906 247.134 10.8188 249.223 10.8188C250.668 10.8188 251.72 11.18 252.726 11.9024C252.851 11.9965 252.993 12.1696 252.993 12.4048C252.993 12.7346 252.726 13.0017 252.396 13.0017C252.255 13.0017 252.144 12.9704 252.034 12.892C251.108 12.2166 250.213 11.9338 249.192 11.9338C247.763 11.9338 246.852 12.7189 246.852 13.7084V13.7398C246.852 14.7764 247.417 15.3576 249.836 15.8762C252.286 16.4104 253.417 17.3053 253.417 18.9859V19.0178C253.417 20.9022 251.846 22.1275 249.663 22.1275C248.062 22.1264 246.727 21.624 245.502 20.6502Z" fill="black"/>
<path d="M255.274 20.7266C255.511 20.7266 255.687 20.9018 255.687 21.1393V21.3146C255.687 21.552 255.511 21.7362 255.274 21.7362C255.028 21.7362 254.853 21.552 254.853 21.3146V21.1393C254.853 20.9018 255.028 20.7266 255.274 20.7266Z" fill="black"/>
<path d="M257.102 15.7288C257.102 15.5087 257.278 15.3682 257.497 15.3682C257.726 15.3682 257.902 15.5087 257.902 15.7288V15.8425C257.902 16.0536 257.726 16.2031 257.497 16.2031C257.278 16.2031 257.102 16.0536 257.102 15.8425V15.7288ZM257.164 17.4502C257.164 17.266 257.313 17.1075 257.497 17.1075C257.691 17.1075 257.84 17.257 257.84 17.4502V21.3943C257.84 21.5875 257.699 21.7365 257.506 21.7365C257.312 21.7365 257.164 21.587 257.164 21.3943V17.4502Z" fill="black"/>
<path d="M259.132 19.4446V19.4273C259.132 18.1449 260.134 17.0557 261.503 17.0557C262.865 17.0557 263.867 18.1275 263.867 19.4099V19.4273C263.867 20.7097 262.856 21.7989 261.486 21.7989C260.124 21.7989 259.132 20.727 259.132 19.4446ZM263.173 19.4446V19.4273C263.173 18.4523 262.444 17.6526 261.486 17.6526C260.502 17.6526 259.826 18.4523 259.826 19.4099V19.4273C259.826 20.4022 260.546 21.1924 261.503 21.1924C262.487 21.1924 263.173 20.4022 263.173 19.4446Z" fill="black"/>
<path d="M171.245 9.67969C167.474 9.67969 164.417 12.7367 164.417 16.5072C164.417 20.2782 167.474 23.3347 171.245 23.3347C175.015 23.3347 178.072 20.2777 178.072 16.5072C178.073 12.7362 175.016 9.67969 171.245 9.67969ZM174.45 21.2868L171.239 18.8211L168.051 21.2868L169.29 17.3634L166.125 14.9997H169.967L171.24 11.1575L172.524 14.9997H176.366L173.212 17.3746L174.45 21.2868Z" fill="url(#paint0_linear_0_84)"/>
</g>
<defs>
<linearGradient id="paint0_linear_0_84" x1="847.175" y1="1375.21" x2="847.175" y2="9.66292" gradientUnits="userSpaceOnUse">
<stop stop-color="#33C886"/>
<stop offset="1" stop-color="#12CF6C"/>
</linearGradient>
<clipPath id="clip0_0_84">
<rect width="99.68" height="14" fill="white" transform="translate(164.417 9.3999)"/>
</clipPath>
</defs>
</svg>
